<svg width="126" height="24" viewBox="0 0 126 24" fill="none" xmlns="http://www.w3.org/2000/svg">
<mask id="mask0_10806_6158" style="mask-type:luminance" maskUnits="userSpaceOnUse" x="2" y="2" width="122" height="20">
<path d="M2.46332 2.48535H123.491V21.6901H2.46332V2.48535Z" fill="white"/>
</mask>
<g mask="url(#mask0_10806_6158)">
<path d="M26.6178 17.8296H33.82V19.297H26.6178V17.8296ZM116.108 17.8296H123.31V19.297H116.108V17.8296Z" fill="#FFB800"/>
<path d="M31.2122 9.8372C31.6765 9.84643 32.1363 9.74508 32.5537 9.54162C32.9712 9.33812 33.3342 9.03832 33.6129 8.6669L34.9033 9.98725C33.883 11.1275 32.7126 11.6977 31.3322 11.6977C30.7093 11.7214 30.088 11.6194 29.5053 11.3977C28.9227 11.176 28.3907 10.8392 27.9412 10.4073C27.5034 9.98568 27.1596 9.47641 26.932 8.91278C26.7045 8.3492 26.5985 7.74393 26.6208 7.13657C26.6037 6.52268 26.715 5.912 26.9475 5.34361C27.1801 4.77522 27.5287 4.26164 27.9712 3.83576C28.4471 3.38676 29.0091 3.03883 29.6232 2.81298C30.2373 2.58713 30.8908 2.48805 31.5442 2.5217C32.1977 2.55535 32.8375 2.72104 33.4252 3.00878C34.0128 3.29652 34.5361 3.70033 34.9633 4.19585L33.7329 5.60619C33.4619 5.24126 33.1088 4.94519 32.7022 4.7419C32.2956 4.5386 31.8468 4.43378 31.3922 4.43591C30.6836 4.42227 29.9966 4.67989 29.4716 5.15608C29.1992 5.40629 28.9854 5.71351 28.8453 6.05584C28.7053 6.39816 28.6425 6.76717 28.6614 7.13657C28.6424 7.50515 28.6992 7.87373 28.8282 8.21949C28.9573 8.56529 29.1558 8.88099 29.4116 9.14704C29.9054 9.59254 30.5471 9.83851 31.2122 9.8372ZM36.4638 11.5776V2.66549H38.4443V9.80719H42.2555V11.5776H36.4638ZM50.9583 10.3474C50.0566 11.1956 48.8652 11.6678 47.6272 11.6678C46.3893 11.6678 45.1979 11.1956 44.2962 10.3474C43.8564 9.92571 43.5093 9.41713 43.2768 8.85407C43.0443 8.29096 42.9316 7.68561 42.9458 7.07659C42.9288 6.46717 43.0402 5.86101 43.2729 5.2975C43.5055 4.73399 43.8542 4.22574 44.2962 3.80579C45.1979 2.95761 46.3893 2.48535 47.6272 2.48535C48.8652 2.48535 50.0566 2.95761 50.9583 3.80579C51.3978 4.22745 51.745 4.73601 51.9776 5.29911C52.2102 5.86222 52.3226 6.46754 52.3086 7.07659C52.3256 7.686 52.2141 8.29214 51.9815 8.85568C51.7489 9.41918 51.4 9.92741 50.9583 10.3474ZM50.2679 7.07659C50.2735 6.32255 49.9952 5.59407 49.4877 5.03609C49.249 4.77169 48.9571 4.56033 48.6317 4.41566C48.3059 4.271 47.9535 4.19626 47.5972 4.19626C47.2409 4.19626 46.8885 4.271 46.5626 4.41566C46.2372 4.56033 45.9455 4.77169 45.7066 5.03609C45.1936 5.59051 44.9141 6.32136 44.9263 7.07659C44.9208 7.83061 45.1993 8.5591 45.7066 9.11707C45.9455 9.38146 46.2372 9.59284 46.5626 9.7375C46.8885 9.88215 47.2409 9.95689 47.5972 9.95689C47.9535 9.95689 48.3059 9.88215 48.6317 9.7375C48.9571 9.59284 49.249 9.38146 49.4877 9.11707C49.7477 8.8464 49.9507 8.52635 50.0845 8.17588C50.2186 7.82538 50.2809 7.45157 50.2679 7.07659ZM56.3597 9.29705C56.5183 9.50229 56.7235 9.66659 56.9587 9.77622C57.1935 9.88585 57.4513 9.93764 57.7101 9.92723C57.9653 9.94078 58.2202 9.89021 58.4506 9.78014C58.6815 9.67007 58.8805 9.50399 59.0308 9.29705C59.3754 8.80694 59.5444 8.21487 59.5109 7.61665V2.69548H61.4915V7.67668C61.4915 8.96697 61.1313 9.95724 60.4112 10.6474C60.0484 10.9951 59.6202 11.267 59.1515 11.4473C58.6823 11.6277 58.1823 11.7128 57.68 11.6977C57.1734 11.7128 56.669 11.6278 56.1951 11.4476C55.7216 11.2674 55.2877 10.9954 54.9192 10.6474C54.1991 9.95724 53.8389 8.96697 53.8389 7.67668V2.69548H55.8196V7.61665C55.8191 8.21957 56.0082 8.80742 56.3597 9.29705ZM70.3743 3.83577C71.2146 4.61596 71.6645 5.69622 71.6645 7.07655C71.6645 8.45687 71.2442 9.56714 70.434 10.3774C69.6238 11.1876 68.3335 11.5776 66.653 11.5776H63.5619V2.66549H66.7131C68.3035 2.66549 69.534 3.05559 70.3743 3.83577ZM68.9338 9.14704C69.4138 8.69696 69.6538 8.0068 69.6538 7.13657C69.6538 6.26636 69.4138 5.57619 68.9338 5.12609C68.4533 4.67597 67.7032 4.40591 66.683 4.40591H65.5727V9.8372H66.8329C67.5947 9.87779 68.3444 9.63157 68.9338 9.14704ZM82.978 2.66549H84.9586V11.5776H82.978L78.7165 5.99629V11.5776H76.7362V2.66549H78.5967L82.978 8.39685V2.66549ZM93.5112 11.5776L92.6709 9.65718H88.9196L88.0797 11.5776H85.9488L89.7899 2.66549H91.7104L95.552 11.5776H93.5112ZM90.8406 5.33614L89.7302 7.91676H91.9509L90.8406 5.33614ZM99.8131 4.40589V11.6076H97.8324V4.40589H95.3116V2.69548H102.364V4.40589H99.8131ZM103.774 2.66549H105.755V11.5776H103.774V2.66549ZM111.247 8.33687L113.527 2.66549H115.688L112.117 11.5776H110.436L106.865 2.66549H109.026L111.247 8.33687ZM123.16 2.66549V4.43592H118.719V6.26636H122.71V7.97678H118.719V9.8372H123.31V11.6076H116.738V2.6955H123.16V2.66549ZM5.19414 15.2774H2.4633V21.69H8.85527V18.9323H5.19414V15.2774ZM18.9384 15.3075V18.9323H15.2772V21.69H21.6692V15.2774H18.9084L18.9384 15.3075ZM2.4633 8.89789H5.22415L5.19414 8.86788V5.24302H8.85527V2.48535H2.4633V8.89789ZM15.2772 2.48535V5.24302H18.9384V8.89789H21.6692V2.48535H15.2772Z" fill="black"/>
<path opacity="0.65" d="M14.9172 8.89789L11.2561 5.24302H15.2773V2.48535H8.85536V5.24302L12.5164 8.89789H14.9172ZM11.6162 15.2774H9.21547L12.2464 18.3052L12.8465 18.9323H8.85536V21.69H15.2773V18.9023L13.4468 17.1019L11.6162 15.2774ZM18.9384 8.89784V12.8828L18.3082 12.2527L15.2772 9.22492V11.6525L17.0778 13.453L18.9084 15.2804H21.6692V8.89784H18.9384ZM8.85527 12.5227L5.22415 8.89784H2.4633V15.2774H5.19414V11.2924L8.85527 14.9503V12.5227Z" fill="black"/>
<path d="M37.8844 20.8252C38.578 20.8252 39.2067 20.527 39.6475 20.0539L38.8437 19.3409C38.6104 19.6326 38.2668 19.8205 37.8844 19.8205C37.2038 19.8205 36.6269 19.2242 36.6269 18.5177C36.6269 17.8177 37.2038 17.2214 37.8844 17.2214C38.2604 17.2214 38.6104 17.4094 38.8372 17.7011L39.6475 16.9816C39.2067 16.5149 38.578 16.2168 37.8844 16.2168C36.5815 16.2168 35.4861 17.2668 35.4861 18.5177C35.4861 19.7687 36.5815 20.8252 37.8844 20.8252ZM42.8484 20.8252C44.1448 20.8252 45.2403 19.7687 45.2403 18.5177C45.2403 17.2668 44.1448 16.2168 42.8484 16.2168C41.5455 16.2168 40.4501 17.2668 40.4501 18.5177C40.4501 19.7687 41.5455 20.8252 42.8484 20.8252ZM42.8484 19.8205C42.1678 19.8205 41.5909 19.2242 41.5909 18.5177C41.5909 17.8177 42.1678 17.2214 42.8484 17.2214C43.529 17.2214 44.0995 17.8177 44.0995 18.5177C44.0995 19.2242 43.529 19.8205 42.8484 19.8205ZM46.3692 20.7474H47.4778V18.1677L48.7611 20.4881L50.0444 18.1677V20.7474H51.153V16.2946H50.0444L48.7611 18.615L47.4778 16.2946H46.3692V20.7474ZM52.5169 20.7474H53.6255V18.1677L54.9087 20.4881L56.1925 18.1677V20.7474H57.3006V16.2946H56.1925L54.9087 18.615L53.6255 16.2946H52.5169V20.7474ZM60.6352 20.8252C61.854 20.8252 62.7029 19.9891 62.7029 18.7965V16.2946H61.6013V18.7446C61.6013 19.3733 61.1993 19.8205 60.6352 19.8205C60.078 19.8205 59.676 19.3733 59.676 18.7446V16.2946H58.5674V18.7965C58.5674 19.9891 59.4233 20.8252 60.6352 20.8252ZM63.9705 20.7474H65.0791V18.1159L67.0237 20.7474H68.1257V16.2946H67.0237V18.9261L65.0791 16.2946H63.9705V20.7474ZM69.4918 20.7474H70.5999V16.2946H69.4918V20.7474ZM73.0119 20.7474H74.12V17.2863H75.4752V16.2946H71.6637V17.2863H73.0119V20.7474ZM77.901 20.7474H79.0157V19.2113L80.7398 16.2946H79.5084L78.4582 18.1742L77.4537 16.2946H76.1765L77.901 19.2113V20.7474ZM85.7924 19.0298H86.7389V19.5872C86.5185 19.7363 86.2593 19.8205 85.9997 19.8205C85.3063 19.8205 84.7165 19.2242 84.7165 18.5177C84.7165 17.8177 85.3063 17.2214 85.9997 17.2214C86.3822 17.2214 86.7646 17.4029 87.0047 17.7011L87.8149 16.9816C87.3675 16.502 86.6806 16.2168 85.9997 16.2168C84.6842 16.2168 83.5756 17.2668 83.5756 18.5177C83.5756 19.7687 84.6842 20.8252 85.9997 20.8252C86.6806 20.8252 87.3675 20.54 87.8149 20.0539V18.1937H85.7924V19.0298ZM92.8055 20.7474L91.7488 19.2502C92.3778 19.0298 92.7794 18.5048 92.7794 17.8242C92.7794 16.9233 92.0729 16.2946 91.088 16.2946H89.0202V20.7474H90.1283V19.3539H90.5692L91.548 20.7474H92.8055ZM90.1283 17.3057H90.9904C91.3729 17.3057 91.6386 17.5131 91.6386 17.8242C91.6386 18.1353 91.3729 18.3427 90.9904 18.3427H90.1283V17.3057ZM96.0983 20.8252C97.3946 20.8252 98.4901 19.7687 98.4901 18.5177C98.4901 17.2668 97.3946 16.2168 96.0983 16.2168C94.7954 16.2168 93.6998 17.2668 93.6998 18.5177C93.6998 19.7687 94.7954 20.8252 96.0983 20.8252ZM96.0983 19.8205C95.4178 19.8205 94.8407 19.2242 94.8407 18.5177C94.8407 17.8177 95.4178 17.2214 96.0983 17.2214C96.7787 17.2214 97.3493 17.8177 97.3493 18.5177C97.3493 19.2242 96.7787 19.8205 96.0983 19.8205ZM101.589 20.8252C102.808 20.8252 103.657 19.9891 103.657 18.7965V16.2946H102.556V18.7446C102.556 19.3733 102.154 19.8205 101.589 19.8205C101.032 19.8205 100.63 19.3733 100.63 18.7446V16.2946H99.5216V18.7965C99.5216 19.9891 100.378 20.8252 101.589 20.8252ZM104.925 20.7474H106.033V19.3539H106.993C107.978 19.3539 108.684 18.7252 108.684 17.8242C108.684 16.9233 107.978 16.2946 106.993 16.2946H104.925V20.7474ZM106.033 18.3427V17.3057H106.895C107.278 17.3057 107.544 17.5131 107.544 17.8242C107.544 18.1353 107.278 18.3427 106.895 18.3427H106.033ZM111.525 20.8252C112.627 20.8252 113.308 20.2678 113.308 19.3733C113.308 18.5372 112.666 18.252 111.667 18.0381C111.007 17.8955 110.792 17.8048 110.792 17.5325C110.792 17.3122 110.994 17.1436 111.35 17.1436C111.765 17.1436 112.212 17.3057 112.621 17.6168L113.184 16.8261C112.711 16.4372 112.128 16.2168 111.376 16.2168C110.365 16.2168 109.678 16.7872 109.678 17.6427C109.678 18.5372 110.384 18.7965 111.337 19.0103C111.985 19.1659 112.193 19.2242 112.193 19.49C112.193 19.7298 111.979 19.8983 111.564 19.8983C111.019 19.8983 110.533 19.6909 110.099 19.3344L109.47 20.0798C110.015 20.5659 110.734 20.8252 111.525 20.8252Z" fill="black"/>
</g>
</svg>
