<svg width="68" height="24" viewBox="0 0 68 24" fill="none" xmlns="http://www.w3.org/2000/svg">
<g clip-path="url(#clip0_10806_6147)">
<path d="M39.8988 12.9348C39.8053 13.0747 39.7457 13.17 39.6813 13.2629C39.0763 14.1239 38.3958 14.9101 37.47 15.454C36.2283 16.1824 34.882 16.4826 33.4799 16.1812C32.7606 16.0256 32.0899 15.6264 31.4119 15.3069C31.2552 15.2333 31.1701 15.2321 31.0316 15.3129C30.4496 15.653 29.8846 16.0352 29.2686 16.2993C28.1763 16.7684 27.0257 17.0325 25.8362 16.7202C25.0902 16.5248 24.4462 16.1076 23.863 15.6059C23.4499 15.2502 23.4232 15.2502 23.004 15.5927C22.2507 16.2077 21.3807 16.6044 20.4707 16.9324C19.3419 17.3388 18.1767 17.5884 16.986 17.7054C15.5328 17.8477 14.1854 17.6029 13.2024 16.4175C12.4139 15.4673 12.2037 14.3651 12.686 13.2206C13.2146 11.9665 13.8245 10.7461 14.398 9.51006C14.6969 8.86611 14.9982 8.22336 15.2886 7.57579C15.3421 7.4564 15.3627 7.31772 15.3688 7.18628C15.3797 6.9451 15.4295 6.681 15.1489 6.53509C14.8621 6.38676 14.5231 6.41329 14.3117 6.67859C14.0481 7.00901 13.8136 7.37199 13.6179 7.74703C12.9667 8.9867 12.3373 10.2384 11.7019 11.4865C11.2256 12.4223 10.7578 13.3629 10.2779 14.2963C9.82222 15.1815 8.96684 15.5191 8.03857 15.1742C7.72631 15.0572 7.53069 14.8293 7.47723 14.4808C7.40311 13.9876 7.56593 13.545 7.7421 13.1037C8.12727 12.1365 8.51729 11.1718 8.90245 10.2047C9.109 9.68613 9.31555 9.16759 9.50874 8.64422C9.64483 8.27883 9.68492 7.89053 9.52697 7.53117C9.40425 7.25381 9.16368 7.05363 8.8259 7.08378C8.45654 7.11634 8.16615 7.30807 8.02642 7.64814C7.53677 8.84802 7.06655 10.0563 6.5854 11.2598C6.00949 12.6997 5.44207 14.1444 4.84185 15.5746C4.6195 16.1028 4.28416 16.5851 3.72039 16.8106C3.43486 16.9252 3.11166 16.9963 2.80426 17.0012C1.8444 17.0132 1.01697 16.6961 0.450769 15.8869C-3.67544e-06 15.2466 -0.109355 14.5315 0.108133 13.7742C0.309826 13.0735 0.510305 12.3729 0.721718 11.6759C0.922197 11.015 1.13361 10.3566 1.34138 9.69819C1.53457 9.08438 1.7156 8.46575 1.9258 7.85797C2.33891 6.6605 2.67183 5.42806 3.32551 4.32948C3.77263 3.5782 4.498 3.17181 5.32907 2.91977C6.19781 2.65688 6.93898 2.9873 7.68014 3.3539C7.96202 3.49258 8.23905 3.64091 8.52822 3.7615C8.93161 3.92912 9.29854 3.823 9.62417 3.56011C9.89026 3.34546 10.1588 3.1296 10.4042 2.89204C11.0178 2.29752 12.3422 2.18779 12.9898 2.87877C13.1392 3.03795 13.3154 3.17181 13.4794 3.31652C13.8184 3.61317 13.9581 3.64452 14.3506 3.42384C15.2837 2.90168 16.2497 2.97404 17.1986 3.30807C17.749 3.50223 18.0795 3.96771 18.2897 4.5176C18.5995 5.32797 18.4695 6.1094 18.1597 6.87154C17.5886 8.2728 16.9665 9.65236 16.4101 11.0585C16.0796 11.8929 15.8013 12.7503 15.5632 13.615C15.466 13.9671 15.466 14.3856 15.5559 14.7389C15.692 15.2743 16.1865 15.4504 16.6871 15.5131C17.4489 15.6083 18.1961 15.4685 18.9251 15.2683C19.5485 15.0982 20.162 14.8872 20.7708 14.6689C21.0648 14.564 21.3382 14.4024 21.6188 14.2601C21.8582 14.1395 21.8776 13.9635 21.7513 13.7416C21.4937 13.2894 21.2215 12.8432 20.9943 12.3753C20.5132 11.3865 20.1183 10.3663 20.224 9.23994C20.3163 8.25351 20.6748 7.39611 21.5921 6.87756C22.9457 6.11181 24.0452 6.32285 25.0403 7.46725C25.9006 8.45731 26.1849 9.64874 25.8155 10.9258C25.609 11.6397 25.3125 12.3295 25.0306 13.0205C24.9529 13.2122 24.9978 13.334 25.1193 13.4462C25.6892 13.9743 26.3392 14.3856 27.0609 14.6762C27.3331 14.7859 27.621 14.8679 27.909 14.9258C28.5287 15.0488 29.1046 14.9029 29.621 14.5544C29.8664 14.3892 29.8725 14.2348 29.7012 14.0033C28.5129 12.3946 28.0427 10.6038 28.3999 8.63699C28.5335 7.90018 28.8774 7.20437 29.6732 6.99213C30.1653 6.86068 30.7218 6.86671 31.2345 6.93063C32.0668 7.03554 32.8201 7.36475 33.3316 8.07624C33.9452 8.93002 34.102 9.8634 33.8371 10.8836C33.6475 11.6168 33.26 12.239 32.8335 12.8444C32.6646 13.0844 32.6585 13.3051 32.8882 13.4667C33.2429 13.7139 33.6026 13.9852 34.0036 14.1287C34.8735 14.4398 35.7775 14.4121 36.6535 14.1323C37.6134 13.826 38.2877 13.1941 38.6717 12.2571C39.1309 11.1356 39.137 9.96228 39.1127 8.78411C39.0945 7.864 39.0617 6.94268 39.0337 6.02137C39.024 5.69216 38.9706 5.67286 38.6546 5.73678C37.8224 5.90319 36.9864 6.05152 36.1505 6.20346C35.8868 6.25049 35.622 6.28305 35.3583 6.33008C34.7848 6.43258 34.311 6.19864 34.2794 5.53298C34.2466 4.86128 34.1481 4.19321 34.0789 3.52393C34.0752 3.48655 34.0716 3.44796 34.0692 3.41058C34.0303 2.62191 34.2223 2.19381 35.176 2.22758C36.1602 2.26376 37.1456 2.29511 38.1285 2.34697C38.6121 2.37229 38.7822 2.25049 38.8138 1.77416C38.8381 1.40394 38.8491 1.03373 38.8721 0.664722C38.9074 0.110004 39.0349 -0.0214402 39.6024 0.000266137C39.9414 0.0135311 40.2828 0.0726207 40.6145 0.146181C41.0823 0.249889 41.3265 0.576691 41.3593 1.03855C41.386 1.416 41.3751 1.79707 41.369 2.17693C41.3641 2.44585 41.448 2.58935 41.7505 2.6195C42.6253 2.70753 43.4965 2.82812 44.3701 2.93183C44.782 2.98007 45.0141 3.14648 45.07 3.45037C45.1672 3.97856 45.0517 4.34033 44.6496 4.48504C44.087 4.68643 43.5062 4.84078 42.9254 4.98308C42.5184 5.08317 42.098 5.12538 41.6849 5.20135C41.4079 5.252 41.2572 5.39671 41.2597 5.70542C41.2706 7.23451 41.2353 8.76481 41.2803 10.2927C41.3034 11.0946 41.4249 11.8966 41.7687 12.6454C42.047 13.252 42.5208 13.4908 43.1818 13.381C44.1502 13.2194 45.0384 12.8818 45.8111 12.274C46.24 11.9364 46.5231 11.5239 46.5438 10.9535C46.5827 9.90922 46.6349 8.86611 46.6956 7.8242C46.7139 7.52393 46.7479 7.2116 46.8487 6.93183C46.9046 6.77627 47.1112 6.57006 47.2546 6.56644C48.0455 6.54232 48.8426 6.53509 49.6299 6.60262C50.1257 6.64482 50.4659 7.10548 50.4391 7.62523C50.4039 8.3536 50.3091 9.07955 50.2386 9.80672C50.1524 10.7039 50.0722 11.6023 49.9762 12.4983C49.879 13.4052 50.6092 13.855 51.3334 13.8634C51.9397 13.8706 52.2981 13.6463 52.5557 13.0084C52.823 12.3488 52.9809 11.6337 53.0964 10.9282C53.2592 9.92731 53.3357 8.91193 53.456 7.90379C53.5046 7.49258 53.7634 7.17542 54.0854 7.10669C54.4572 7.0271 54.9468 7.17784 55.0684 7.51549C55.1704 7.79767 55.1473 8.14256 55.1121 8.45248C54.9809 9.60051 54.7913 10.7437 54.682 11.8941C54.6152 12.6008 55.0149 13.1037 55.7062 13.3123C56.0513 13.416 56.4085 13.498 56.7657 13.539C57.3927 13.6102 57.8362 13.1555 57.9674 12.4489C58.078 11.8544 58.0925 11.2417 58.1472 10.6364C58.2104 9.91766 58.2189 9.1905 58.3428 8.48263C58.5251 7.4347 59.2067 6.48444 60.4703 6.17934C61.2285 5.99605 61.994 5.97434 62.7509 6.06116C63.9052 6.19261 65.1141 6.97163 65.4835 8.28848C65.7642 9.28938 65.6524 10.2565 65.3231 11.2188C64.9404 12.3343 64.243 13.2038 63.2673 13.8658C63.1774 13.9273 63.1252 14.0431 63.0559 14.1335C63.1786 14.1878 63.3025 14.2891 63.424 14.2867C64.5905 14.2686 65.6888 14.0045 66.6961 13.3979C66.9233 13.2616 67.1712 13.1579 67.4105 13.0446C67.6304 12.9409 67.7605 13.0639 67.6997 13.252C67.5976 13.5679 67.4749 13.902 67.2708 14.1576C66.4081 15.2405 65.2308 15.7591 63.87 15.8495C63.2928 15.8881 62.7072 15.8109 62.1252 15.7796C61.6866 15.7555 61.2479 15.7169 60.8093 15.6879C60.587 15.6735 60.4582 15.7663 60.4023 15.9954C60.0524 17.4269 59.8677 18.8836 59.6866 20.3427C59.5724 21.2616 59.3999 22.1781 59.1776 23.0777C59.0573 23.5661 58.6733 23.9026 58.1424 23.987C57.8252 24.0376 57.5895 23.9014 57.4826 23.6071C57.3927 23.3587 57.3088 23.0995 57.287 22.839C57.1825 21.5571 57.225 20.2788 57.3963 19.003C57.4838 18.3542 57.5409 17.7018 57.6163 17.0506C57.6685 16.5984 57.7378 16.1474 57.7803 15.694C57.8143 15.3274 57.7305 15.2417 57.3769 15.1718C56.6467 15.0271 55.9152 14.8848 55.1874 14.7256C54.6929 14.6171 54.3078 14.7907 53.9736 15.1284C53.5289 15.5782 53.0368 15.9677 52.4536 16.2209C51.7489 16.526 51.0017 16.4621 50.2775 16.3476C49.2314 16.1824 48.3967 15.6361 47.8025 14.7606C47.6179 14.4893 47.4842 14.183 47.3396 13.8863C47.2582 13.7199 47.1865 13.656 46.9897 13.7549C46.2947 14.1058 45.6021 14.4664 44.8853 14.7678C44.0858 15.1031 43.2377 15.2212 42.3884 14.9861C41.561 14.757 40.9255 14.2276 40.3982 13.5667C40.256 13.3919 40.1175 13.2134 39.8988 12.9348ZM63.7424 9.64633C63.7327 9.53298 63.7327 9.41842 63.7144 9.30627C63.6087 8.65869 62.9538 8.36927 62.4253 8.75878C62.1872 8.93485 61.9697 9.16759 61.8069 9.4148C61.2625 10.2421 61.0171 11.1899 60.7717 12.1329C60.7097 12.3693 60.6672 12.6201 60.672 12.8625C60.6817 13.3147 60.949 13.4486 61.3318 13.2038C62.1252 12.6961 62.712 11.9918 63.2078 11.2092C63.5091 10.7353 63.7557 10.2336 63.7424 9.64633ZM32.6281 10.1034C32.6354 9.65357 32.5297 9.23753 32.1956 8.91314C32.0109 8.73346 31.7788 8.65628 31.514 8.73828C31.192 8.83717 31.0182 9.07473 30.9939 9.46786C30.9466 10.23 31.277 10.8848 31.616 11.53C31.791 11.8616 31.9575 11.8519 32.1822 11.5444C32.4981 11.1151 32.6209 10.6279 32.6281 10.1034ZM24.7998 9.95746C24.7159 9.6813 24.66 9.39309 24.541 9.13382C24.3879 8.8034 23.993 8.65507 23.6443 8.74552C23.2749 8.84199 23.1291 9.01685 23.1668 9.46786C23.2008 9.86098 23.2919 10.2529 23.3964 10.634C23.4742 10.9149 23.5933 11.1899 23.733 11.4455C23.9225 11.7892 24.1206 11.7928 24.3065 11.46C24.5641 11.0006 24.7633 10.5194 24.7998 9.95746Z" fill="#ED1C40"/>
</g>
<defs>
<clipPath id="clip0_10806_6147">
<rect width="67.7143" height="24" fill="white"/>
</clipPath>
</defs>
</svg>
