<svg width="338" height="42" viewBox="0 0 338 42" fill="none" xmlns="http://www.w3.org/2000/svg">
<path d="M72.2352 25.6317C72.2352 26.3245 72.2982 27.1432 72.5501 27.8359C72.739 28.4027 73.0539 29.0325 73.3058 29.5993C73.4318 29.7252 73.4318 29.9772 73.4318 30.1661C73.4318 30.481 73.2429 30.7329 72.928 30.8588L71.4165 31.8665C71.2276 31.9924 70.9757 32.0554 70.7867 32.0554C70.4719 32.0554 70.2199 31.9295 70.094 31.6776C69.7161 31.2997 69.4642 30.9848 69.2123 30.5439C69.0234 30.1031 68.7085 29.5993 68.4566 29.0325C66.6932 31.2367 64.0481 32.4963 61.2142 32.4963C59.4508 32.5592 57.6244 31.9924 56.3019 30.7329C55.1053 29.4733 54.4126 27.71 54.5385 26.0096C54.4756 24.0573 55.2313 22.2309 56.6798 20.9714C58.3802 19.5859 60.5214 18.9561 62.6626 19.0191C63.5443 19.0191 64.363 19.082 65.2447 19.208C66.1894 19.334 67.134 19.5229 68.0157 19.7118V17.9484C68.1417 16.5 67.7008 15.1145 66.8821 14.0438C65.7485 13.1622 64.3001 12.7843 62.8516 12.9102C61.9699 12.9102 61.0882 13.0362 60.2065 13.2881C59.2619 13.477 58.4432 13.7919 57.5615 14.1698C57.2466 14.2957 56.9947 14.3587 56.6798 14.5477H56.3019C55.9241 14.5477 55.7981 14.2328 55.7981 13.7919V12.6583C55.7981 12.3434 55.8611 12.0915 55.924 11.7767C56.113 11.5877 56.3649 11.3358 56.6168 11.2728C57.6244 10.769 58.6321 10.3911 59.7027 10.1392C60.8993 9.82435 62.2218 9.63542 63.5443 9.63542C65.8115 9.44649 68.2047 10.1392 69.968 11.6507C71.4795 13.2881 72.1723 15.4923 72.0463 17.7595L72.2352 25.6317ZM62.1588 29.4104C63.0405 29.4104 63.8592 29.2844 64.7409 28.9695C65.6856 28.6546 66.4413 28.0878 67.0081 27.3951C67.386 26.9542 67.6379 26.4504 67.8898 25.8836C68.0157 25.1909 68.0787 24.4351 68.0787 23.7424V22.7347C67.386 22.6088 66.5672 22.4199 65.8115 22.2939C65.0558 22.2309 64.3001 22.1679 63.5443 22.1679C62.2848 22.105 60.9623 22.4828 59.8916 23.1756C59.1359 23.8683 58.6951 24.876 58.758 25.8836C58.6951 26.8283 59.0729 27.8359 59.7027 28.4657C60.3325 29.0955 61.2771 29.4104 62.1588 29.4104ZM81.9338 32.0554C81.5559 32.0554 81.304 31.9924 80.9891 31.8665C80.6742 31.5516 80.5483 31.2997 80.4853 30.9218L74.7543 11.9026C74.6284 11.5877 74.5654 11.2728 74.5654 10.895C74.5024 10.5801 74.6914 10.3282 75.0062 10.3282C75.0692 10.3282 75.0692 10.3282 75.1322 10.3282H77.5883C77.9662 10.3282 78.2181 10.3911 78.533 10.5171C78.7219 10.832 78.9738 11.0839 79.0368 11.4618L83.1933 27.71L87.0349 11.4618C87.0979 11.0839 87.2239 10.769 87.5388 10.5171C87.8536 10.3282 88.1685 10.2022 88.5464 10.3282H90.5617C90.9395 10.3282 91.2544 10.3911 91.5693 10.5171C91.8842 10.832 92.0102 11.0839 92.0731 11.4618L95.9148 27.8989L100.197 11.4618C100.26 11.0839 100.512 10.769 100.701 10.5171C101.016 10.3282 101.331 10.2022 101.646 10.3282H103.913C104.228 10.2652 104.48 10.4541 104.48 10.769C104.48 10.832 104.48 10.832 104.48 10.895C104.48 11.0209 104.48 11.2099 104.48 11.2728C104.417 11.4618 104.417 11.7137 104.354 11.8396L98.4339 30.8588C98.3709 31.2367 98.119 31.5516 97.9301 31.8035C97.6152 31.9924 97.3003 32.1184 96.9854 31.9924H94.8442C94.4663 32.0554 94.1514 31.9295 93.8365 31.6776C93.5216 31.3627 93.3957 31.0478 93.3327 30.6699L89.4911 14.8625L85.5865 30.7329C85.5235 31.1108 85.3975 31.4257 85.0826 31.7405C84.7678 31.9295 84.4529 32.0554 84.075 32.0554C84.012 32.0554 81.9338 32.0554 81.9338 32.0554ZM113.548 32.6852C112.289 32.6852 110.966 32.5592 109.77 32.2444C108.762 32.0554 107.818 31.7405 106.936 31.2367C106.369 31.0478 105.991 30.481 105.991 29.8512V28.5917C105.991 28.0878 106.18 27.8359 106.558 27.8359C106.684 27.8359 106.873 27.8359 106.999 27.8989L107.629 28.2138C108.51 28.5917 109.392 28.8436 110.337 29.0955C111.344 29.2844 112.289 29.4104 113.297 29.4104C114.493 29.4733 115.816 29.2214 116.886 28.6546C117.642 28.1508 118.146 27.2691 118.146 26.3874C118.146 25.7577 117.957 25.1279 117.516 24.687C116.823 24.0573 115.879 23.6164 114.934 23.4275L111.344 22.2939C109.833 21.8531 108.51 21.0344 107.503 19.7748C106.747 18.7672 106.306 17.5076 106.306 16.1851C106.306 15.2404 106.495 14.2328 106.936 13.4771C107.377 12.7213 108.006 11.9656 108.699 11.4618C109.455 10.895 110.274 10.4541 111.218 10.2022C112.226 9.88733 113.297 9.76138 114.304 9.76138C114.871 9.76138 115.375 9.76137 115.942 9.82435C116.508 9.88733 117.012 9.9503 117.516 10.1392C118.02 10.2652 118.524 10.3282 118.965 10.5171C119.342 10.6431 119.657 10.832 119.972 10.958C120.287 11.0839 120.476 11.3358 120.665 11.5247C120.791 11.7137 120.854 12.0286 120.854 12.2805V13.4141C120.854 13.9179 120.665 14.1698 120.287 14.1698C119.909 14.1068 119.657 14.0438 119.342 13.8549C117.831 13.2251 116.257 12.8473 114.619 12.9102C113.486 12.8473 112.352 13.0992 111.344 13.603C110.589 14.0438 110.148 14.8625 110.211 15.8072C110.211 16.437 110.4 17.0668 110.903 17.5076C111.659 18.1374 112.604 18.5782 113.611 18.8931L117.138 19.9637C118.65 20.3416 119.909 21.1603 120.917 22.2939C121.673 23.3015 122.113 24.5611 122.05 25.8836C122.05 26.8913 121.862 27.8989 121.421 28.7176C120.98 29.5993 120.35 30.292 119.657 30.8588C118.902 31.4886 117.957 31.9295 116.949 32.2444C115.942 32.5592 114.682 32.6852 113.548 32.6852Z" fill="#252F3E"/>
<path d="M72.2352 25.6317C72.2352 26.3245 72.2982 27.1432 72.5501 27.8359C72.739 28.4027 73.0539 29.0325 73.3058 29.5993C73.4318 29.7252 73.4318 29.9772 73.4318 30.1661C73.4318 30.481 73.2429 30.7329 72.928 30.8588L71.4165 31.8665C71.2276 31.9924 70.9757 32.0554 70.7867 32.0554C70.4719 32.0554 70.2199 31.9295 70.094 31.6776C69.7161 31.2997 69.4642 30.9848 69.2123 30.5439C69.0234 30.1031 68.7085 29.5993 68.4566 29.0325C66.6932 31.2367 64.0481 32.4963 61.2142 32.4963C59.4508 32.5592 57.6244 31.9924 56.3019 30.7329C55.1053 29.4733 54.4126 27.71 54.5385 26.0096C54.4756 24.0573 55.2313 22.2309 56.6798 20.9714C58.3802 19.5859 60.5214 18.9561 62.6626 19.0191C63.5443 19.0191 64.363 19.082 65.2447 19.208C66.1894 19.334 67.134 19.5229 68.0157 19.7118V17.9484C68.1417 16.5 67.7008 15.1145 66.8821 14.0438C65.7485 13.1622 64.3001 12.7843 62.8516 12.9102C61.9699 12.9102 61.0882 13.0362 60.2065 13.2881C59.2619 13.477 58.4432 13.7919 57.5615 14.1698C57.2466 14.2957 56.9947 14.3587 56.6798 14.5477H56.3019C55.9241 14.5477 55.7981 14.2328 55.7981 13.7919V12.6583C55.7981 12.3434 55.8611 12.0915 55.924 11.7767C56.113 11.5877 56.3649 11.3358 56.6168 11.2728C57.6244 10.769 58.6321 10.3911 59.7027 10.1392C60.8993 9.82435 62.2218 9.63542 63.5443 9.63542C65.8115 9.44649 68.2047 10.1392 69.968 11.6507C71.4795 13.2881 72.1723 15.4923 72.0463 17.7595L72.2352 25.6317ZM62.1588 29.4104C63.0405 29.4104 63.8592 29.2844 64.7409 28.9695C65.6856 28.6546 66.4413 28.0878 67.0081 27.3951C67.386 26.9542 67.6379 26.4504 67.8898 25.8836C68.0157 25.1909 68.0787 24.4351 68.0787 23.7424V22.7347C67.386 22.6088 66.5672 22.4199 65.8115 22.2939C65.0558 22.2309 64.3001 22.1679 63.5443 22.1679C62.2848 22.105 60.9623 22.4828 59.8916 23.1756C59.1359 23.8683 58.6951 24.876 58.758 25.8836C58.6951 26.8283 59.0729 27.8359 59.7027 28.4657C60.3325 29.0955 61.2771 29.4104 62.1588 29.4104ZM81.9338 32.0554C81.5559 32.0554 81.304 31.9924 80.9891 31.8665C80.6742 31.5516 80.5483 31.2997 80.4853 30.9218L74.7543 11.9026C74.6284 11.5877 74.5654 11.2728 74.5654 10.895C74.5024 10.5801 74.6914 10.3282 75.0062 10.3282C75.0692 10.3282 75.0692 10.3282 75.1322 10.3282H77.5883C77.9662 10.3282 78.2181 10.3911 78.533 10.5171C78.7219 10.832 78.9738 11.0839 79.0368 11.4618L83.1933 27.71L87.0349 11.4618C87.0979 11.0839 87.2239 10.769 87.5388 10.5171C87.8536 10.3282 88.1685 10.2022 88.5464 10.3282H90.5617C90.9395 10.3282 91.2544 10.3911 91.5693 10.5171C91.8842 10.832 92.0102 11.0839 92.0731 11.4618L95.9148 27.8989L100.197 11.4618C100.26 11.0839 100.512 10.769 100.701 10.5171C101.016 10.3282 101.331 10.2022 101.646 10.3282H103.913C104.228 10.2652 104.48 10.4541 104.48 10.769C104.48 10.832 104.48 10.832 104.48 10.895C104.48 11.0209 104.48 11.2099 104.48 11.2728C104.417 11.4618 104.417 11.7137 104.354 11.8396L98.4339 30.8588C98.3709 31.2367 98.119 31.5516 97.9301 31.8035C97.6152 31.9924 97.3003 32.1184 96.9854 31.9924H94.8442C94.4663 32.0554 94.1514 31.9295 93.8365 31.6776C93.5216 31.3627 93.3957 31.0478 93.3327 30.6699L89.4911 14.8625L85.5865 30.7329C85.5235 31.1108 85.3975 31.4257 85.0826 31.7405C84.7678 31.9295 84.4529 32.0554 84.075 32.0554C84.012 32.0554 81.9338 32.0554 81.9338 32.0554ZM113.548 32.6852C112.289 32.6852 110.966 32.5592 109.77 32.2444C108.762 32.0554 107.818 31.7405 106.936 31.2367C106.369 31.0478 105.991 30.481 105.991 29.8512V28.5917C105.991 28.0878 106.18 27.8359 106.558 27.8359C106.684 27.8359 106.873 27.8359 106.999 27.8989L107.629 28.2138C108.51 28.5917 109.392 28.8436 110.337 29.0955C111.344 29.2844 112.289 29.4104 113.297 29.4104C114.493 29.4733 115.816 29.2214 116.886 28.6546C117.642 28.1508 118.146 27.2691 118.146 26.3874C118.146 25.7577 117.957 25.1279 117.516 24.687C116.823 24.0573 115.879 23.6164 114.934 23.4275L111.344 22.2939C109.833 21.8531 108.51 21.0344 107.503 19.7748C106.747 18.7672 106.306 17.5076 106.306 16.1851C106.306 15.2404 106.495 14.2328 106.936 13.4771C107.377 12.7213 108.006 11.9656 108.699 11.4618C109.455 10.895 110.274 10.4541 111.218 10.2022C112.226 9.88733 113.297 9.76138 114.304 9.76138C114.871 9.76138 115.375 9.76137 115.942 9.82435C116.508 9.88733 117.012 9.9503 117.516 10.1392C118.02 10.2652 118.524 10.3282 118.965 10.5171C119.342 10.6431 119.657 10.832 119.972 10.958C120.287 11.0839 120.476 11.3358 120.665 11.5247C120.791 11.7137 120.854 12.0286 120.854 12.2805V13.4141C120.854 13.9179 120.665 14.1698 120.287 14.1698C119.909 14.1068 119.657 14.0438 119.342 13.8549C117.831 13.2251 116.257 12.8473 114.619 12.9102C113.486 12.8473 112.352 13.0992 111.344 13.603C110.589 14.0438 110.148 14.8625 110.211 15.8072C110.211 16.437 110.4 17.0668 110.903 17.5076C111.659 18.1374 112.604 18.5782 113.611 18.8931L117.138 19.9637C118.65 20.3416 119.909 21.1603 120.917 22.2939C121.673 23.3015 122.113 24.5611 122.05 25.8836C122.05 26.8913 121.862 27.8989 121.421 28.7176C120.98 29.5993 120.35 30.292 119.657 30.8588C118.902 31.4886 117.957 31.9295 116.949 32.2444C115.942 32.5592 114.682 32.6852 113.548 32.6852Z" fill="#252F3E"/>
<path d="M133.134 32.2444C132.693 32.2444 132.505 32.0555 132.505 31.6146V11.021C132.505 10.5801 132.693 10.3912 133.134 10.3912H133.89C134.331 10.3912 134.52 10.5801 134.583 11.021L134.709 12.7214C135.905 11.7138 137.228 11.021 138.55 10.4542C139.936 9.95038 141.195 9.69847 142.455 9.69847C145.037 9.69847 146.674 10.8321 147.556 13.0363C148.816 11.9657 150.201 11.084 151.65 10.5172C153.098 9.95038 154.484 9.6355 155.932 9.6355C157.821 9.6355 159.207 10.2023 160.215 11.3359C161.222 12.4695 161.663 14.1069 161.663 16.2481V31.6146C161.663 32.0555 161.474 32.2444 161.033 32.2444H159.963C159.522 32.2444 159.333 32.0555 159.333 31.6146V17.3817C159.333 15.4924 159.018 14.1069 158.388 13.2252C157.759 12.3435 156.814 11.9657 155.428 11.9657C152.846 11.9657 150.39 12.9103 148.06 14.6737C148.123 15.3665 148.186 16.0592 148.186 16.7519V31.6146C148.186 32.0555 147.997 32.2444 147.556 32.2444H146.486C146.045 32.2444 145.856 32.0555 145.856 31.6146V17.3817C145.856 15.4924 145.541 14.1069 144.911 13.2252C144.281 12.3435 143.337 11.9657 141.951 11.9657C139.432 11.9657 137.039 12.8473 134.709 14.6107V31.6146C134.709 32.0555 134.52 32.2444 134.079 32.2444C134.205 32.2444 133.134 32.2444 133.134 32.2444Z" fill="#252F3E"/>
<path d="M171.803 32.7484C169.913 32.7484 168.465 32.1816 167.394 31.048C166.324 29.9144 165.757 28.3399 165.757 26.4506C165.757 24.3094 166.386 22.672 167.772 21.4124C169.158 20.2158 170.984 19.5231 173.251 19.5231C175.014 19.5231 176.967 19.9009 179.045 20.5307V16.878C179.045 15.1147 178.667 13.7921 177.911 13.0994C177.156 12.3436 175.833 11.9658 174.07 11.9658C172.18 11.9658 170.291 12.3436 168.15 13.0364C167.961 13.0994 167.709 13.1624 167.52 13.1624C167.205 13.1624 167.079 12.9734 167.079 12.5955V11.9028C167.079 11.7139 167.142 11.462 167.205 11.336C167.268 11.21 167.394 11.1471 167.646 10.9581C169.787 10.0135 171.991 9.57263 174.448 9.57263C176.904 9.57263 178.604 10.1394 179.738 11.2101C180.871 12.2807 181.438 13.9181 181.438 16.0593V31.6148C181.438 32.0556 181.249 32.2445 180.808 32.2445H179.927C179.486 32.2445 179.297 32.0556 179.297 31.6148L179.171 29.7254C176.841 31.7407 174.385 32.7484 171.803 32.7484ZM172.18 30.4812C173.188 30.4812 174.322 30.2922 175.455 29.8514C176.652 29.4106 177.785 28.7808 179.045 27.8991V22.483C177.282 21.9792 175.455 21.7273 173.755 21.7273C169.976 21.7273 168.087 23.3017 168.087 26.4506C168.087 27.8361 168.465 28.7808 169.095 29.5365C169.787 30.1033 170.795 30.4812 172.18 30.4812Z" fill="#252F3E"/>
<path d="M187.484 32.2445C187.043 32.2445 186.854 32.0556 186.854 31.6148V11.0211C186.854 10.5803 187.043 10.3913 187.484 10.3913H188.24C188.68 10.3913 188.869 10.5803 188.932 11.0211L189.121 13.5402C190.129 12.3436 191.137 11.462 192.144 10.9581C193.152 10.4543 194.222 10.2024 195.482 10.2024C195.923 10.2024 196.238 10.2024 196.553 10.2654C196.993 10.2654 197.182 10.5803 197.182 10.9581V12.0287C197.182 12.1547 197.119 12.2177 197.056 12.4066C196.993 12.4696 196.868 12.5326 196.679 12.5326C196.49 12.5326 196.238 12.5326 196.049 12.5326C195.86 12.5326 195.545 12.5326 195.167 12.5326C193.971 12.5326 192.837 12.7215 191.892 13.2253C190.948 13.7291 190.003 14.4849 189.121 15.6814V31.7407C189.121 32.1816 188.932 32.3705 188.492 32.3705H187.421V32.2445H187.484Z" fill="#252F3E"/>
<path d="M201.087 32.2445C200.646 32.2445 200.457 32.0556 200.457 31.6147V0.629775C200.457 0.188933 200.646 0 201.087 0H202.158C202.599 0 202.787 0.188933 202.787 0.629775V20.0898L212.549 10.7691C212.864 10.4543 213.179 10.3283 213.557 10.3283H215.005C215.383 10.3283 215.509 10.4543 215.509 10.7062C215.509 10.8321 215.383 11.084 215.068 11.3359L205.244 20.6566L215.887 31.2368C216.076 31.4258 216.265 31.6777 216.265 31.8036C216.265 32.1185 216.139 32.2445 215.761 32.2445H214.06C213.683 32.2445 213.431 32.1185 213.179 31.8666L202.85 21.5383V31.6147C202.85 32.0556 202.662 32.2445 202.221 32.2445H201.087Z" fill="#252F3E"/>
<path d="M227.16 32.9372C223.948 32.9372 221.492 31.9295 219.854 29.9772C218.217 28.0249 217.398 25.128 217.398 21.2234C217.398 17.5707 218.154 14.7367 219.854 12.7214C221.492 10.7061 223.759 9.69849 226.719 9.69849C229.175 9.69849 231.064 10.4542 232.387 11.9657C233.646 13.4771 234.402 15.6184 234.402 18.4524C234.402 19.586 234.339 20.4676 234.276 21.0974C234.213 21.5383 233.961 21.7272 233.583 21.7272H219.854C219.854 24.8131 220.484 27.0173 221.744 28.5288C222.94 29.9773 224.83 30.67 227.412 30.67C229.364 30.67 231.19 30.2921 233.017 29.5994C233.395 29.4734 233.583 29.4105 233.709 29.4105C233.835 29.4105 233.898 29.4734 234.024 29.5364C234.15 29.5994 234.15 29.7253 234.15 29.9143V30.544C234.15 31.0479 234.024 31.2998 233.709 31.4887C231.631 32.4334 229.49 32.9372 227.16 32.9372ZM232.135 19.6489C232.135 19.2081 232.198 18.7673 232.198 18.2005C232.198 16.1222 231.694 14.5478 230.749 13.4771C229.805 12.4065 228.419 11.8397 226.593 11.8397C222.311 11.8397 220.106 14.4218 219.791 19.6489H232.135Z" fill="#252F3E"/>
<path d="M245.36 32.5595C243.786 32.5595 242.589 32.1186 241.708 31.174C240.826 30.2293 240.448 28.9697 240.448 27.1434V12.4696H237.299C236.858 12.4696 236.669 12.2807 236.669 11.8399V11.462C236.669 11.2731 236.732 11.0212 236.795 10.9582C236.858 10.8322 236.984 10.7692 237.299 10.7692L240.574 10.4544L240.889 4.7234C240.889 4.53447 240.952 4.28256 241.078 4.21958C241.141 4.1566 241.267 4.09363 241.519 4.09363H242.211C242.652 4.09363 242.841 4.28256 242.841 4.7234V10.4544H248.698C249.139 10.4544 249.328 10.6433 249.328 11.0841V11.9658C249.328 12.4067 249.139 12.5956 248.698 12.5956H242.841V27.1434C242.841 28.34 243.03 29.1587 243.534 29.6625C244.038 30.1663 244.794 30.3553 245.864 30.3553C246.62 30.3553 247.376 30.2923 247.942 30.1663C248.257 30.1034 248.446 30.0404 248.635 30.0404C248.824 30.0404 248.95 29.9774 249.013 29.9774C249.328 29.9774 249.454 30.1034 249.454 30.4812V31.111C249.454 31.6148 249.328 31.8667 249.013 32.0557C247.942 32.3705 246.746 32.5595 245.36 32.5595Z" fill="#252F3E"/>
<path d="M253.736 41.3133C253.295 41.3133 253.107 41.1244 253.107 40.6836V11.0841C253.107 10.6433 253.295 10.4544 253.736 10.4544H254.492C254.933 10.4544 255.122 10.6433 255.185 11.0841L255.311 12.8475C256.507 11.7769 257.767 10.9582 258.963 10.5173C260.097 10.0135 261.294 9.82458 262.616 9.82458C265.261 9.82458 267.339 10.8322 268.851 12.8475C270.362 14.8628 271.118 17.6338 271.118 21.1605C271.118 24.7503 270.362 27.5843 268.788 29.7255C267.213 31.8667 265.072 32.9373 262.364 32.9373C259.845 32.9373 257.578 31.9297 255.563 29.9774V40.8095C255.563 41.2504 255.374 41.4393 254.933 41.4393H253.736V41.3133ZM261.986 30.4812C264.191 30.4812 265.828 29.7255 267.025 28.151C268.158 26.5766 268.725 24.3094 268.725 21.2235C268.725 15.0517 266.584 11.9658 262.238 11.9658C260.034 11.9658 257.704 12.9105 255.5 14.7368V27.5213C256.57 28.5289 257.704 29.2846 258.712 29.7255C259.719 30.1663 260.853 30.4812 261.986 30.4812Z" fill="#252F3E"/>
<path d="M279.053 32.4336C277.983 32.4336 277.101 32.0557 276.534 31.4259C275.905 30.7332 275.59 29.7885 275.59 28.5919V0.692886C275.59 0.252043 275.779 0.0631104 276.219 0.0631104H277.29C277.731 0.0631104 277.92 0.252043 277.92 0.692886V28.466C277.92 29.0958 278.046 29.5366 278.298 29.8515C278.55 30.1664 278.927 30.2293 279.494 30.2293C279.62 30.2293 279.872 30.2294 280.061 30.1664C280.25 30.1664 280.439 30.1034 280.565 30.1034C280.943 30.1034 281.132 30.2923 281.132 30.7332V31.6149C281.132 31.9927 281.006 32.1817 280.628 32.2446C280.124 32.3706 279.683 32.4336 279.053 32.4336Z" fill="#252F3E"/>
<path d="M290.011 32.7484C288.122 32.7484 286.674 32.1816 285.603 31.048C284.532 29.9144 283.965 28.3399 283.965 26.4506C283.965 24.3094 284.595 22.672 285.981 21.4124C287.366 20.2158 289.193 19.5231 291.46 19.5231C293.223 19.5231 295.175 19.9009 297.254 20.5307V16.878C297.254 15.1147 296.876 13.7921 296.12 13.0994C295.364 12.3436 294.042 11.9658 292.278 11.9658C290.389 11.9658 288.5 12.3436 286.359 13.0364C286.17 13.0994 285.918 13.1624 285.729 13.1624C285.414 13.1624 285.288 12.9734 285.288 12.5955V11.9028C285.288 11.7139 285.351 11.462 285.414 11.336C285.477 11.21 285.603 11.1471 285.855 10.9581C287.996 10.0135 290.2 9.57263 292.656 9.57263C295.113 9.57263 296.813 10.1394 297.946 11.2101C299.08 12.2807 299.647 13.9181 299.647 16.0593V31.6148C299.647 32.0556 299.458 32.2445 299.017 32.2445H298.135C297.695 32.2445 297.506 32.0556 297.506 31.6148L297.38 29.7254C295.05 31.7407 292.593 32.7484 290.011 32.7484ZM290.389 30.4812C291.397 30.4812 292.53 30.2922 293.664 29.8514C294.861 29.4106 295.994 28.7808 297.254 27.8991V22.483C295.49 21.9792 293.664 21.7273 291.964 21.7273C288.185 21.7273 286.296 23.3017 286.296 26.4506C286.296 27.8361 286.674 28.7808 287.303 29.5365C287.996 30.1033 289.004 30.4812 290.389 30.4812Z" fill="#252F3E"/>
<path d="M313.691 32.7484C310.542 32.7484 308.212 31.7408 306.511 29.7885C304.811 27.8362 304.055 25.0022 304.055 21.2865C304.055 17.5708 304.937 14.6739 306.574 12.7845C308.212 10.8322 310.668 9.82458 313.754 9.82458C315.265 9.82458 316.714 10.1395 318.036 10.7063C318.414 10.8322 318.54 11.1471 318.54 11.6509V12.2807C318.54 12.6586 318.414 12.8475 318.036 12.8475C317.973 12.8475 317.847 12.8475 317.721 12.7845C317.596 12.7845 317.407 12.7216 317.155 12.6586C316.084 12.3437 315.013 12.2177 313.943 12.2177C311.361 12.2177 309.534 12.9105 308.338 14.359C307.204 15.8075 306.637 18.0117 306.637 21.1605V21.6644C306.637 24.6873 307.204 26.8915 308.338 28.403C309.471 29.8514 311.361 30.5442 313.817 30.5442C314.887 30.5442 316.021 30.3553 317.344 29.9774C317.658 29.9144 317.847 29.8514 317.973 29.8514C318.099 29.8514 318.162 29.7885 318.288 29.7885C318.666 29.7885 318.792 29.9774 318.792 30.3553V30.985C318.792 31.4889 318.666 31.7408 318.351 31.9297C316.777 32.4335 315.265 32.7484 313.691 32.7484Z" fill="#252F3E"/>
<path d="M330.758 32.9372C327.546 32.9372 325.09 31.9295 323.452 29.9772C321.815 28.0249 320.996 25.128 320.996 21.2234C320.996 17.5707 321.752 14.7367 323.452 12.7214C325.09 10.7061 327.357 9.69849 330.317 9.69849C332.773 9.69849 334.662 10.4542 335.985 11.9657C337.244 13.4771 338 15.6184 338 18.4524C338 19.586 337.937 20.4676 337.874 21.0974C337.811 21.5383 337.559 21.7272 337.181 21.7272H323.452C323.452 24.8131 324.082 27.0173 325.342 28.5288C326.538 29.9773 328.427 30.67 331.01 30.67C332.962 30.67 334.788 30.2921 336.615 29.5994C336.992 29.4734 337.181 29.4105 337.307 29.4105C337.433 29.4105 337.496 29.4734 337.622 29.5364C337.685 29.5994 337.748 29.7253 337.748 29.9143V30.544C337.748 31.0479 337.622 31.2998 337.307 31.4887C335.229 32.4334 333.088 32.9372 330.758 32.9372ZM335.733 19.6489C335.733 19.2081 335.796 18.7673 335.796 18.2005C335.796 16.1222 335.292 14.5478 334.347 13.4771C333.403 12.4065 332.017 11.8397 330.191 11.8397C325.908 11.8397 323.704 14.4218 323.389 19.6489H335.733Z" fill="#252F3E"/>
<path d="M9.50951 39.7386C11.1442 39.7386 12.4694 38.4134 12.4694 36.7787C12.4694 35.1439 11.1442 33.8187 9.50951 33.8187C7.87478 33.8187 6.54956 35.1439 6.54956 36.7787C6.54956 38.4134 7.87478 39.7386 9.50951 39.7386Z" fill="#252F3E"/>
<path d="M26.4504 39.7386C28.0852 39.7386 29.4104 38.4134 29.4104 36.7787C29.4104 35.1439 28.0852 33.8187 26.4504 33.8187C24.8157 33.8187 23.4905 35.1439 23.4905 36.7787C23.4905 38.4134 24.8157 39.7386 26.4504 39.7386Z" fill="#252F3E"/>
<path d="M45.6587 9.44641H32.5594L27.3323 27.332H8.25006L5.0382 16.8148H0L5.16416 32.4962H30.4181L36.2751 13.477H45.6587V9.44641Z" fill="#252F3E"/>
<path d="M18.4523 12.6583L24.1202 15.3034L29.7882 6.23462H18.4523V12.6583Z" fill="#00A4CA"/>
<path d="M29.7882 12.6583L24.1202 15.3034V6.2976L29.7882 6.23462V12.6583Z" fill="#038DB9"/>
<path d="M24.1202 3.33765L18.4523 6.23461L24.1202 8.81669L29.7882 6.23461L24.1202 3.33765Z" fill="#34C1DA"/>
<path d="M5.60492 12.6583L11.2099 15.3034L16.9409 6.23462H5.60492V12.6583Z" fill="#EF7C22"/>
<path d="M16.9409 12.6583L11.21 15.3034V6.23462H16.9409V12.6583Z" fill="#E46025"/>
<path d="M11.2099 3.33765L5.60492 6.23461L11.2099 8.81669L16.9409 6.23461L11.2099 3.33765Z" fill="#F7972C"/>
<path d="M12.0287 23.2385L17.6967 25.8835L23.3647 16.6259H12.0287V23.2385Z" fill="#1F66AF"/>
<path d="M23.3647 23.2385L17.6967 25.8835V16.6259H23.3647V23.2385Z" fill="#13519D"/>
<path d="M17.6968 13.9807L23.3648 16.6258L17.6968 19.3968L12.0289 16.6258L17.6968 13.9807Z" fill="#187EBB"/>
</svg>
