<?xml version="1.0" encoding="utf-8"?>
<!-- Generator: Adobe Illustrator 26.0.3, SVG Export Plug-In . SVG Version: 6.00 Build 0)  -->
<svg version="1.0" id="Layer_1" xmlns="http://www.w3.org/2000/svg" xmlns:xlink="http://www.w3.org/1999/xlink" x="0px" y="0px"
	 viewBox="0 0 694.4 528.4" style="enable-background:new 0 0 694.4 528.4;" xml:space="preserve">
<style type="text/css">
	.st0{fill:#252F3E;}
	.st1{fill:#00A4CA;}
	.st2{fill:#038DB9;}
	.st3{fill:#34C1DA;}
	.st4{fill:#EF7C22;}
	.st5{fill:#E46025;}
	.st6{fill:#F7972C;}
	.st7{fill:#1F66AF;}
	.st8{fill:#13519D;}
	.st9{fill:#187EBB;}
</style>
<g>
	<g>
		<path class="st0" d="M200.9,279.5c0,1.1,0.1,2.4,0.5,3.5c0.3,0.9,0.8,1.9,1.2,2.8c0.2,0.2,0.2,0.6,0.2,0.9c0,0.5-0.3,0.9-0.8,1.1
			l-2.4,1.6c-0.3,0.2-0.7,0.3-1,0.3c-0.5,0-0.9-0.2-1.1-0.6c-0.6-0.6-1-1.1-1.4-1.8c-0.3-0.7-0.8-1.5-1.2-2.4
			c-2.8,3.5-7,5.5-11.5,5.5c-2.8,0.1-5.7-0.8-7.8-2.8c-1.9-2-3-4.8-2.8-7.5c-0.1-3.1,1.1-6,3.4-8c2.7-2.2,6.1-3.2,9.5-3.1
			c1.4,0,2.7,0.1,4.1,0.3c1.5,0.2,3,0.5,4.4,0.8v-2.8c0.2-2.3-0.5-4.5-1.8-6.2c-1.8-1.4-4.1-2-6.4-1.8c-1.4,0-2.8,0.2-4.2,0.6
			c-1.5,0.3-2.8,0.8-4.2,1.4c-0.5,0.2-0.9,0.3-1.4,0.6h-0.6c-0.6,0-0.8-0.5-0.8-1.2v-1.8c0-0.5,0.1-0.9,0.2-1.4
			c0.3-0.3,0.7-0.7,1.1-0.8c1.6-0.8,3.2-1.4,4.9-1.8c1.9-0.5,4-0.8,6.1-0.8c3.6-0.3,7.4,0.8,10.2,3.2c2.4,2.6,3.5,6.1,3.3,9.7
			L200.9,279.5L200.9,279.5z M184.9,285.5c1.4,0,2.7-0.2,4.1-0.7c1.5-0.5,2.7-1.4,3.6-2.5c0.6-0.7,1-1.5,1.4-2.4
			c0.2-1.1,0.3-2.3,0.3-3.4v-1.6c-1.1-0.2-2.4-0.5-3.6-0.7c-1.2-0.1-2.4-0.2-3.6-0.2c-2-0.1-4.1,0.5-5.8,1.6
			c-1.2,1.1-1.9,2.7-1.8,4.3c-0.1,1.5,0.5,3.1,1.5,4.1S183.5,285.5,184.9,285.5z M216.3,289.7c-0.6,0-1-0.1-1.5-0.3
			c-0.5-0.5-0.7-0.9-0.8-1.5l-9.1-30.2c-0.2-0.5-0.3-1-0.3-1.6c-0.1-0.5,0.2-0.9,0.7-0.9c0.1,0,0.1,0,0.2,0h3.9c0.6,0,1,0.1,1.5,0.3
			c0.3,0.5,0.7,0.9,0.8,1.5l6.6,25.8l6.1-25.8c0.1-0.6,0.3-1.1,0.8-1.5c0.5-0.3,1-0.5,1.6-0.3h3.2c0.6,0,1.1,0.1,1.6,0.3
			c0.5,0.5,0.7,0.9,0.8,1.5l6.1,26.1l6.8-26.1c0.1-0.6,0.5-1.1,0.8-1.5c0.5-0.3,1-0.5,1.5-0.3h3.6c0.5-0.1,0.9,0.2,0.9,0.7
			c0,0.1,0,0.1,0,0.2c0,0.2,0,0.5,0,0.6c-0.1,0.3-0.1,0.7-0.2,0.9l-9.4,30.2c-0.1,0.6-0.5,1.1-0.8,1.5c-0.5,0.3-1,0.5-1.5,0.3h-3.4
			c-0.6,0.1-1.1-0.1-1.6-0.5c-0.5-0.5-0.7-1-0.8-1.6l-6.1-25.1l-6.2,25.2c-0.1,0.6-0.3,1.1-0.8,1.6c-0.5,0.3-1,0.5-1.6,0.5
			C219.6,289.7,216.3,289.7,216.3,289.7z M266.5,290.7c-2,0-4.1-0.2-6-0.7c-1.6-0.3-3.1-0.8-4.5-1.6c-0.9-0.3-1.5-1.2-1.5-2.2v-2
			c0-0.8,0.3-1.2,0.9-1.2c0.2,0,0.5,0,0.7,0.1l1,0.5c1.4,0.6,2.8,1,4.3,1.4c1.6,0.3,3.1,0.5,4.7,0.5c1.9,0.1,4-0.3,5.7-1.2
			c1.2-0.8,2-2.2,2-3.6c0-1-0.3-2-1-2.7c-1.1-1-2.6-1.7-4.1-2l-5.7-1.8c-2.4-0.7-4.5-2-6.1-4c-1.2-1.6-1.9-3.6-1.9-5.7
			c0-1.5,0.3-3.1,1-4.3s1.7-2.4,2.8-3.2c1.2-0.9,2.5-1.6,4-2c1.6-0.5,3.3-0.7,4.9-0.7c0.9,0,1.7,0,2.6,0.1c0.9,0.1,1.7,0.2,2.5,0.5
			c0.8,0.2,1.6,0.3,2.3,0.6c0.6,0.2,1.1,0.5,1.6,0.7c0.5,0.2,0.8,0.6,1.1,0.9c0.2,0.3,0.3,0.8,0.3,1.2v1.8c0,0.8-0.3,1.2-0.9,1.2
			c-0.6-0.1-1-0.2-1.5-0.5c-2.4-1-4.9-1.6-7.5-1.5c-1.8-0.1-3.6,0.3-5.2,1.1c-1.2,0.7-1.9,2-1.8,3.5c0,1,0.3,2,1.1,2.7
			c1.2,1,2.7,1.7,4.3,2.2l5.6,1.7c2.4,0.6,4.4,1.9,6,3.7c1.2,1.6,1.9,3.6,1.8,5.7c0,1.6-0.3,3.2-1,4.5c-0.7,1.4-1.7,2.5-2.8,3.4
			c-1.2,1-2.7,1.7-4.3,2.2C270.3,290.5,268.3,290.7,266.5,290.7z"/>
		<path class="st0" d="M200.9,279.5c0,1.1,0.1,2.4,0.5,3.5c0.3,0.9,0.8,1.9,1.2,2.8c0.2,0.2,0.2,0.6,0.2,0.9c0,0.5-0.3,0.9-0.8,1.1
			l-2.4,1.6c-0.3,0.2-0.7,0.3-1,0.3c-0.5,0-0.9-0.2-1.1-0.6c-0.6-0.6-1-1.1-1.4-1.8c-0.3-0.7-0.8-1.5-1.2-2.4
			c-2.8,3.5-7,5.5-11.5,5.5c-2.8,0.1-5.7-0.8-7.8-2.8c-1.9-2-3-4.8-2.8-7.5c-0.1-3.1,1.1-6,3.4-8c2.7-2.2,6.1-3.2,9.5-3.1
			c1.4,0,2.7,0.1,4.1,0.3c1.5,0.2,3,0.5,4.4,0.8v-2.8c0.2-2.3-0.5-4.5-1.8-6.2c-1.8-1.4-4.1-2-6.4-1.8c-1.4,0-2.8,0.2-4.2,0.6
			c-1.5,0.3-2.8,0.8-4.2,1.4c-0.5,0.2-0.9,0.3-1.4,0.6h-0.6c-0.6,0-0.8-0.5-0.8-1.2v-1.8c0-0.5,0.1-0.9,0.2-1.4
			c0.3-0.3,0.7-0.7,1.1-0.8c1.6-0.8,3.2-1.4,4.9-1.8c1.9-0.5,4-0.8,6.1-0.8c3.6-0.3,7.4,0.8,10.2,3.2c2.4,2.6,3.5,6.1,3.3,9.7
			L200.9,279.5L200.9,279.5z M184.9,285.5c1.4,0,2.7-0.2,4.1-0.7c1.5-0.5,2.7-1.4,3.6-2.5c0.6-0.7,1-1.5,1.4-2.4
			c0.2-1.1,0.3-2.3,0.3-3.4v-1.6c-1.1-0.2-2.4-0.5-3.6-0.7c-1.2-0.1-2.4-0.2-3.6-0.2c-2-0.1-4.1,0.5-5.8,1.6
			c-1.2,1.1-1.9,2.7-1.8,4.3c-0.1,1.5,0.5,3.1,1.5,4.1S183.5,285.5,184.9,285.5z M216.3,289.7c-0.6,0-1-0.1-1.5-0.3
			c-0.5-0.5-0.7-0.9-0.8-1.5l-9.1-30.2c-0.2-0.5-0.3-1-0.3-1.6c-0.1-0.5,0.2-0.9,0.7-0.9c0.1,0,0.1,0,0.2,0h3.9c0.6,0,1,0.1,1.5,0.3
			c0.3,0.5,0.7,0.9,0.8,1.5l6.6,25.8l6.1-25.8c0.1-0.6,0.3-1.1,0.8-1.5c0.5-0.3,1-0.5,1.6-0.3h3.2c0.6,0,1.1,0.1,1.6,0.3
			c0.5,0.5,0.7,0.9,0.8,1.5l6.1,26.1l6.8-26.1c0.1-0.6,0.5-1.1,0.8-1.5c0.5-0.3,1-0.5,1.5-0.3h3.6c0.5-0.1,0.9,0.2,0.9,0.7
			c0,0.1,0,0.1,0,0.2c0,0.2,0,0.5,0,0.6c-0.1,0.3-0.1,0.7-0.2,0.9l-9.4,30.2c-0.1,0.6-0.5,1.1-0.8,1.5c-0.5,0.3-1,0.5-1.5,0.3h-3.4
			c-0.6,0.1-1.1-0.1-1.6-0.5c-0.5-0.5-0.7-1-0.8-1.6l-6.1-25.1l-6.2,25.2c-0.1,0.6-0.3,1.1-0.8,1.6c-0.5,0.3-1,0.5-1.6,0.5
			C219.6,289.7,216.3,289.7,216.3,289.7z M266.5,290.7c-2,0-4.1-0.2-6-0.7c-1.6-0.3-3.1-0.8-4.5-1.6c-0.9-0.3-1.5-1.2-1.5-2.2v-2
			c0-0.8,0.3-1.2,0.9-1.2c0.2,0,0.5,0,0.7,0.1l1,0.5c1.4,0.6,2.8,1,4.3,1.4c1.6,0.3,3.1,0.5,4.7,0.5c1.9,0.1,4-0.3,5.7-1.2
			c1.2-0.8,2-2.2,2-3.6c0-1-0.3-2-1-2.7c-1.1-1-2.6-1.7-4.1-2l-5.7-1.8c-2.4-0.7-4.5-2-6.1-4c-1.2-1.6-1.9-3.6-1.9-5.7
			c0-1.5,0.3-3.1,1-4.3s1.7-2.4,2.8-3.2c1.2-0.9,2.5-1.6,4-2c1.6-0.5,3.3-0.7,4.9-0.7c0.9,0,1.7,0,2.6,0.1c0.9,0.1,1.7,0.2,2.5,0.5
			c0.8,0.2,1.6,0.3,2.3,0.6c0.6,0.2,1.1,0.5,1.6,0.7c0.5,0.2,0.8,0.6,1.1,0.9c0.2,0.3,0.3,0.8,0.3,1.2v1.8c0,0.8-0.3,1.2-0.9,1.2
			c-0.6-0.1-1-0.2-1.5-0.5c-2.4-1-4.9-1.6-7.5-1.5c-1.8-0.1-3.6,0.3-5.2,1.1c-1.2,0.7-1.9,2-1.8,3.5c0,1,0.3,2,1.1,2.7
			c1.2,1,2.7,1.7,4.3,2.2l5.6,1.7c2.4,0.6,4.4,1.9,6,3.7c1.2,1.6,1.9,3.6,1.8,5.7c0,1.6-0.3,3.2-1,4.5c-0.7,1.4-1.7,2.5-2.8,3.4
			c-1.2,1-2.7,1.7-4.3,2.2C270.3,290.5,268.3,290.7,266.5,290.7z"/>
	</g>
	<g>
		<path class="st0" d="M297.6,290c-0.7,0-1-0.3-1-1v-32.7c0-0.7,0.3-1,1-1h1.2c0.7,0,1,0.3,1.1,1l0.2,2.7c1.9-1.6,4-2.7,6.1-3.6
			c2.2-0.8,4.2-1.2,6.2-1.2c4.1,0,6.7,1.8,8.1,5.3c2-1.7,4.2-3.1,6.5-4c2.3-0.9,4.5-1.4,6.8-1.4c3,0,5.2,0.9,6.8,2.7
			c1.6,1.8,2.3,4.4,2.3,7.8V289c0,0.7-0.3,1-1,1h-1.7c-0.7,0-1-0.3-1-1v-22.6c0-3-0.5-5.2-1.5-6.6s-2.5-2-4.7-2
			c-4.1,0-8,1.5-11.7,4.3c0.1,1.1,0.2,2.2,0.2,3.3V289c0,0.7-0.3,1-1,1h-1.7c-0.7,0-1-0.3-1-1v-22.6c0-3-0.5-5.2-1.5-6.6
			c-1-1.4-2.5-2-4.7-2c-4,0-7.8,1.4-11.5,4.2v27c0,0.7-0.3,1-1,1C299.3,290,297.6,290,297.6,290z"/>
		<path class="st0" d="M359,290.8c-3,0-5.3-0.9-7-2.7c-1.7-1.8-2.6-4.3-2.6-7.3c0-3.4,1-6,3.2-8c2.2-1.9,5.1-3,8.7-3
			c2.8,0,5.9,0.6,9.2,1.6v-5.8c0-2.8-0.6-4.9-1.8-6c-1.2-1.2-3.3-1.8-6.1-1.8c-3,0-6,0.6-9.4,1.7c-0.3,0.1-0.7,0.2-1,0.2
			c-0.5,0-0.7-0.3-0.7-0.9v-1.1c0-0.3,0.1-0.7,0.2-0.9c0.1-0.2,0.3-0.3,0.7-0.6c3.4-1.5,6.9-2.2,10.8-2.2c3.9,0,6.6,0.9,8.4,2.6
			c1.8,1.7,2.7,4.3,2.7,7.7V289c0,0.7-0.3,1-1,1h-1.4c-0.7,0-1-0.3-1-1l-0.2-3C367,289.2,363.1,290.8,359,290.8z M359.6,287.2
			c1.6,0,3.4-0.3,5.2-1c1.9-0.7,3.7-1.7,5.7-3.1v-8.6c-2.8-0.8-5.7-1.2-8.4-1.2c-6,0-9,2.5-9,7.5c0,2.2,0.6,3.7,1.6,4.9
			C355.8,286.6,357.4,287.2,359.6,287.2z"/>
		<path class="st0" d="M383.9,290c-0.7,0-1-0.3-1-1v-32.7c0-0.7,0.3-1,1-1h1.2c0.7,0,1,0.3,1.1,1l0.3,4c1.6-1.9,3.2-3.3,4.8-4.1
			c1.6-0.8,3.3-1.2,5.3-1.2c0.7,0,1.2,0,1.7,0.1c0.7,0,1,0.5,1,1.1v1.7c0,0.2-0.1,0.3-0.2,0.6c-0.1,0.1-0.3,0.2-0.6,0.2
			c-0.3,0-0.7,0-1,0s-0.8,0-1.4,0c-1.9,0-3.7,0.3-5.2,1.1c-1.5,0.8-3,2-4.4,3.9v25.5c0,0.7-0.3,1-1,1h-1.7V290z"/>
		<path class="st0" d="M405.5,290c-0.7,0-1-0.3-1-1v-49.2c0-0.7,0.3-1,1-1h1.7c0.7,0,1,0.3,1,1v30.9l15.5-14.8
			c0.5-0.5,1-0.7,1.6-0.7h2.3c0.6,0,0.8,0.2,0.8,0.6c0,0.2-0.2,0.6-0.7,1l-15.6,14.8l16.9,16.8c0.3,0.3,0.6,0.7,0.6,0.9
			c0,0.5-0.2,0.7-0.8,0.7h-2.7c-0.6,0-1-0.2-1.4-0.6L408.3,273v16c0,0.7-0.3,1-1,1C407.3,290,405.5,290,405.5,290z"/>
		<path class="st0" d="M446.9,291.1c-5.1,0-9-1.6-11.6-4.7c-2.6-3.1-3.9-7.7-3.9-13.9c0-5.8,1.2-10.3,3.9-13.5
			c2.6-3.2,6.2-4.8,10.9-4.8c3.9,0,6.9,1.2,9,3.6c2,2.4,3.2,5.8,3.2,10.3c0,1.8-0.1,3.2-0.2,4.2c-0.1,0.7-0.5,1-1.1,1h-21.8
			c0,4.9,1,8.4,3,10.8c1.9,2.3,4.9,3.4,9,3.4c3.1,0,6-0.6,8.9-1.7c0.6-0.2,0.9-0.3,1.1-0.3s0.3,0.1,0.5,0.2s0.2,0.3,0.2,0.6v1
			c0,0.8-0.2,1.2-0.7,1.5C454,290.3,450.6,291.1,446.9,291.1z M454.8,270c0-0.7,0.1-1.4,0.1-2.3c0-3.3-0.8-5.8-2.3-7.5
			s-3.7-2.6-6.6-2.6c-6.8,0-10.3,4.1-10.8,12.4H454.8z"/>
		<path class="st0" d="M475.8,290.5c-2.5,0-4.4-0.7-5.8-2.2c-1.4-1.5-2-3.5-2-6.4v-23.3h-5c-0.7,0-1-0.3-1-1V257
			c0-0.3,0.1-0.7,0.2-0.8c0.1-0.2,0.3-0.3,0.8-0.3l5.2-0.5l0.5-9.1c0-0.3,0.1-0.7,0.3-0.8c0.1-0.1,0.3-0.2,0.7-0.2h1.1
			c0.7,0,1,0.3,1,1v9.1h9.3c0.7,0,1,0.3,1,1v1.4c0,0.7-0.3,1-1,1h-9.3v23.1c0,1.9,0.3,3.2,1.1,4c0.8,0.8,2,1.1,3.7,1.1
			c1.2,0,2.4-0.1,3.3-0.3c0.5-0.1,0.8-0.2,1.1-0.2c0.3,0,0.5-0.1,0.6-0.1c0.5,0,0.7,0.2,0.7,0.8v1c0,0.8-0.2,1.2-0.7,1.5
			C479.9,290.2,478,290.5,475.8,290.5z"/>
		<path class="st0" d="M489.1,304.4c-0.7,0-1-0.3-1-1v-47c0-0.7,0.3-1,1-1h1.2c0.7,0,1,0.3,1.1,1l0.2,2.8c1.9-1.7,3.9-3,5.8-3.7
			c1.8-0.8,3.7-1.1,5.8-1.1c4.2,0,7.5,1.6,9.9,4.8c2.4,3.2,3.6,7.6,3.6,13.2c0,5.7-1.2,10.2-3.7,13.6c-2.5,3.4-5.9,5.1-10.2,5.1
			c-4,0-7.6-1.6-10.8-4.7v17.2c0,0.7-0.3,1-1,1h-1.9L489.1,304.4L489.1,304.4z M502.2,287.2c3.5,0,6.1-1.2,8-3.7
			c1.8-2.5,2.7-6.1,2.7-11c0-9.8-3.4-14.7-10.3-14.7c-3.5,0-7.2,1.5-10.7,4.4v20.3c1.7,1.6,3.5,2.8,5.1,3.5
			C498.6,286.7,500.4,287.2,502.2,287.2z"/>
		<path class="st0" d="M529.3,290.3c-1.7,0-3.1-0.6-4-1.6c-1-1.1-1.5-2.6-1.5-4.5v-44.3c0-0.7,0.3-1,1-1h1.7c0.7,0,1,0.3,1,1V284
			c0,1,0.2,1.7,0.6,2.2s1,0.6,1.9,0.6c0.2,0,0.6,0,0.9-0.1c0.3,0,0.6-0.1,0.8-0.1c0.6,0,0.9,0.3,0.9,1v1.4c0,0.6-0.2,0.9-0.8,1
			C531,290.2,530.3,290.3,529.3,290.3z"/>
		<path class="st0" d="M546.7,290.8c-3,0-5.3-0.9-7-2.7c-1.7-1.8-2.6-4.3-2.6-7.3c0-3.4,1-6,3.2-8c2.2-1.9,5.1-3,8.7-3
			c2.8,0,5.9,0.6,9.2,1.6v-5.8c0-2.8-0.6-4.9-1.8-6c-1.2-1.2-3.3-1.8-6.1-1.8c-3,0-6,0.6-9.4,1.7c-0.3,0.1-0.7,0.2-1,0.2
			c-0.5,0-0.7-0.3-0.7-0.9v-1.1c0-0.3,0.1-0.7,0.2-0.9c0.1-0.2,0.3-0.3,0.7-0.6c3.4-1.5,6.9-2.2,10.8-2.2c3.9,0,6.6,0.9,8.4,2.6
			s2.7,4.3,2.7,7.7V289c0,0.7-0.3,1-1,1h-1.4c-0.7,0-1-0.3-1-1l-0.2-3C554.7,289.2,550.8,290.8,546.7,290.8z M547.3,287.2
			c1.6,0,3.4-0.3,5.2-1c1.9-0.7,3.7-1.7,5.7-3.1v-8.6c-2.8-0.8-5.7-1.2-8.4-1.2c-6,0-9,2.5-9,7.5c0,2.2,0.6,3.7,1.6,4.9
			C543.5,286.6,545.1,287.2,547.3,287.2z"/>
		<path class="st0" d="M584.3,290.8c-5,0-8.7-1.6-11.4-4.7s-3.9-7.6-3.9-13.5s1.4-10.5,4-13.5c2.6-3.1,6.5-4.7,11.4-4.7
			c2.4,0,4.7,0.5,6.8,1.4c0.6,0.2,0.8,0.7,0.8,1.5v1c0,0.6-0.2,0.9-0.8,0.9c-0.1,0-0.3,0-0.5-0.1c-0.2,0-0.5-0.1-0.9-0.2
			c-1.7-0.5-3.4-0.7-5.1-0.7c-4.1,0-7,1.1-8.9,3.4c-1.8,2.3-2.7,5.8-2.7,10.8v0.8c0,4.8,0.9,8.3,2.7,10.7c1.8,2.3,4.8,3.4,8.7,3.4
			c1.7,0,3.5-0.3,5.6-0.9c0.5-0.1,0.8-0.2,1-0.2s0.3-0.1,0.5-0.1c0.6,0,0.8,0.3,0.8,0.9v1c0,0.8-0.2,1.2-0.7,1.5
			C589.2,290.3,586.8,290.8,584.3,290.8z"/>
		<path class="st0" d="M611.4,291.1c-5.1,0-9-1.6-11.6-4.7c-2.6-3.1-3.9-7.7-3.9-13.9c0-5.8,1.2-10.3,3.9-13.5
			c2.6-3.2,6.2-4.8,10.9-4.8c3.9,0,6.9,1.2,9,3.6c2,2.4,3.2,5.8,3.2,10.3c0,1.8-0.1,3.2-0.2,4.2c-0.1,0.7-0.5,1-1.1,1h-21.8
			c0,4.9,1,8.4,3,10.8c1.9,2.3,4.9,3.4,9,3.4c3.1,0,6-0.6,8.9-1.7c0.6-0.2,0.9-0.3,1.1-0.3c0.2,0,0.3,0.1,0.5,0.2
			c0.1,0.1,0.2,0.3,0.2,0.6v1c0,0.8-0.2,1.2-0.7,1.5C618.5,290.3,615.1,291.1,611.4,291.1z M619.3,270c0-0.7,0.1-1.4,0.1-2.3
			c0-3.3-0.8-5.8-2.3-7.5s-3.7-2.6-6.6-2.6c-6.8,0-10.3,4.1-10.8,12.4H619.3z"/>
	</g>
	<g>
		<circle class="st0" cx="101.3" cy="297.2" r="4.7"/>
		<circle class="st0" cx="128.2" cy="297.2" r="4.7"/>
		<polygon class="st0" points="158.7,253.8 137.9,253.8 129.6,282.2 99.3,282.2 94.2,265.5 86.2,265.5 94.4,290.4 134.5,290.4 
			143.8,260.2 158.7,260.2 		"/>
		<g>
			<g>
				<polygon class="st1" points="115.5,258.9 124.5,263.1 133.5,248.7 115.5,248.7 				"/>
				<polygon class="st2" points="133.5,258.9 124.5,263.1 124.5,248.8 133.5,248.7 				"/>
				<polygon class="st3" points="124.5,244.1 115.5,248.7 124.5,252.8 133.5,248.7 				"/>
			</g>
			<g>
				<polygon class="st4" points="95.1,258.9 104,263.1 113.1,248.7 95.1,248.7 				"/>
				<polygon class="st5" points="113.1,258.9 104,263.1 104,248.7 113.1,248.7 				"/>
				<polygon class="st6" points="104,244.1 95.1,248.7 104,252.8 113.1,248.7 				"/>
			</g>
			<g>
				<polygon class="st7" points="105.3,275.7 114.3,279.9 123.3,265.2 105.3,265.2 				"/>
				<polygon class="st8" points="123.3,275.7 114.3,279.9 114.3,265.2 123.3,265.2 				"/>
				<polygon class="st9" points="114.3,261 123.3,265.2 114.3,269.6 105.3,265.2 				"/>
			</g>
		</g>
	</g>
</g>
</svg>
