<svg width="57" height="54" viewBox="0 0 57 54" fill="none" xmlns="http://www.w3.org/2000/svg">
<path opacity="0.999" fill-rule="evenodd" clip-rule="evenodd" d="M28.579 0C29.4561 0 30.3335 0 31.2106 0C31.5425 0.0545795 31.8672 0.146685 32.1843 0.276316C38.2138 3.21653 44.2401 6.1639 50.2633 9.11843C50.893 9.51366 51.3535 10.0531 51.6448 10.7368C51.8606 11.3756 52.0712 12.0159 52.2764 12.6579C53.578 18.8765 54.8762 25.0958 56.1712 31.3158C56.2004 31.6569 56.2135 31.999 56.2106 32.3421C56.2998 33.2624 56.0762 34.0955 55.5396 34.8421C51.4256 40.0263 47.3114 45.2106 43.1975 50.3948C43.0246 50.5853 42.8359 50.7563 42.6317 50.9079C42.2633 51.1535 41.8948 51.3992 41.5264 51.6448C41.1077 51.885 40.6604 52.0387 40.1843 52.1053C33.3861 52.1098 26.5877 52.1053 19.7896 52.0921C19.0504 51.9987 18.4101 51.7006 17.8685 51.1974C17.4383 51.0648 17.0611 50.8453 16.7369 50.5395C15.8953 49.6806 15.0927 48.7903 14.329 47.8685C10.761 43.5384 7.24342 39.17 3.77639 34.7632C3.4611 34.2911 3.25933 33.7737 3.17112 33.2105C3.15357 32.6403 3.15357 32.0703 3.17112 31.5C4.59962 25.0856 6.03823 18.6733 7.48692 12.2632C7.56628 11.9812 7.67155 11.7093 7.8027 11.4474C8.14094 10.9459 8.47868 10.4459 8.81586 9.94737C9.09452 9.63685 9.41031 9.3693 9.76323 9.14474C15.7106 6.18861 21.658 3.23245 27.6053 0.276316C27.9227 0.14662 28.2475 0.0545148 28.579 0Z" fill="#5297FE"/>
<path fill-rule="evenodd" clip-rule="evenodd" d="M29.2369 4.63153C29.6756 4.62714 30.1143 4.63153 30.5527 4.64469C35.8509 7.2324 41.1493 9.82014 46.4475 12.4079C46.7993 12.5772 47.1459 12.757 47.4869 12.9473C47.5941 13.2332 47.6904 13.5227 47.7764 13.8157C49.0469 19.8753 50.3101 25.9366 51.5659 32C51.5835 32.1229 51.5835 32.2455 51.5659 32.3684C47.6712 37.2808 43.7764 42.1929 39.8817 47.1052C39.7448 47.246 39.5914 47.3645 39.4212 47.4605C33.1843 47.4781 26.9475 47.4781 20.7106 47.4605C20.3457 47.0892 19.9159 46.8173 19.4211 46.6447C19.022 46.1929 18.6229 45.7413 18.2238 45.2894C14.6806 41.0355 11.207 36.7284 7.80272 32.3684C7.78516 32.2368 7.78516 32.1052 7.80272 31.9737C9.17958 25.8966 10.548 19.8176 11.908 13.7368C12.0035 13.5107 12.1263 13.3002 12.2764 13.1052C17.9327 10.2836 23.5862 7.45906 29.2369 4.63153Z" fill="#082D75"/>
<path fill-rule="evenodd" clip-rule="evenodd" d="M32.3421 15.8425C32.3121 15.9163 32.3079 15.9952 32.3289 16.0793C32.3405 16.0171 32.3537 15.9557 32.3684 15.8951C32.4103 15.7296 32.4497 15.563 32.4868 15.3951C33.9721 15.6797 35.3097 16.2894 36.5 17.2241C37.6132 18.2078 38.3632 19.4227 38.75 20.8688C39.0326 21.8787 39.2345 22.9051 39.3553 23.9478C39.4655 24.7608 39.5358 25.5766 39.5658 26.3951C38.9455 27.653 38.4282 28.9512 38.0132 30.2899C37.71 31.3488 37.5958 32.4278 37.671 33.5267C37.7684 34.3307 37.8913 35.1288 38.0395 35.9215C36.8553 36.577 35.7368 37.327 34.6842 38.1715C33.4403 39.2659 32.4447 40.5512 31.6974 42.0267C31.4363 42.5354 31.1863 43.0486 30.9474 43.5662C30.8934 43.5746 30.8408 43.5659 30.7895 43.5399C30.4434 43.397 30.1013 43.2522 29.7631 43.1057C31.3155 38.6322 32.9076 34.1762 34.5395 29.7372C34.7782 29.0386 35.0063 28.3367 35.2237 27.632C35.3263 27.2499 35.4095 26.8638 35.4737 26.4741C35.4974 26.4554 35.5063 26.4291 35.5 26.3951C31.6008 26.3864 27.706 26.3951 23.8158 26.4214C23.9684 27.3564 24.1833 28.2775 24.4605 29.1846C25.3551 32.0264 26.2499 34.8686 27.1447 37.7109C27.6945 39.5004 28.2339 41.2941 28.7631 43.0925C28.7566 43.1275 28.7389 43.1538 28.7105 43.1715C28.3358 43.3109 27.9587 43.4338 27.5789 43.5399C27.1134 42.3065 26.5389 41.1267 25.8553 40.0004C25.1851 38.9878 24.3737 38.0975 23.421 37.3293C22.7888 36.8243 22.1309 36.3549 21.4474 35.9215C21.4386 35.8996 21.4298 35.8775 21.421 35.8557C21.6801 34.7254 21.7986 33.5807 21.7763 32.4214C21.7075 31.3054 21.497 30.2178 21.1447 29.1583C20.839 28.2322 20.4969 27.3201 20.1184 26.4214C20.1842 24.7854 20.3684 23.1626 20.671 21.553C20.8938 20.4064 21.3061 19.3363 21.9079 18.3425C22.5375 17.4146 23.3489 16.6909 24.3421 16.1714C24.948 15.8569 25.5796 15.6069 26.2368 15.4214C26.2544 15.4302 26.2719 15.439 26.2895 15.4478C26.4158 15.8393 26.53 16.234 26.6316 16.632C25.3345 16.9447 24.2336 17.585 23.3289 18.553C22.8465 19.1492 22.4869 19.8158 22.25 20.553C21.9822 21.4313 21.7892 22.3261 21.671 23.2372C21.5345 24.2336 21.4467 25.2336 21.4079 26.2372C22.0881 27.7867 22.5881 29.392 22.9079 31.053C23.0655 32.0672 23.0918 33.0849 22.9868 34.1057C22.9224 34.5091 22.8698 34.9128 22.8289 35.3162C23.6596 35.8833 24.4446 36.5107 25.1842 37.1978C25.4079 37.4391 25.6316 37.6801 25.8553 37.9215C25.2423 35.863 24.6019 33.8104 23.9342 31.7636C23.5025 30.4141 23.1078 29.0543 22.75 27.6846C22.6614 27.258 22.5956 26.8283 22.5526 26.3951C22.5526 26.2548 22.5526 26.1144 22.5526 25.9741C22.6228 25.9741 22.693 25.9741 22.7631 25.9741C22.886 25.9741 23.0088 25.9741 23.1316 25.9741C23.1316 25.7022 23.1316 25.4302 23.1316 25.1583C27.5087 25.1583 31.886 25.1583 36.2632 25.1583C36.2632 25.4214 36.2632 25.6846 36.2632 25.9478C36.426 25.9563 36.5839 25.9475 36.7368 25.9214C36.7674 26.1273 36.7716 26.3378 36.75 26.553C36.5926 27.4191 36.3734 28.2699 36.0921 29.1057C35.0232 32.1207 33.9397 35.1293 32.8421 38.132C33.9787 37.0378 35.2374 36.0904 36.6184 35.2899C36.541 34.7038 36.4708 34.1162 36.4079 33.5267C36.3397 32.4043 36.445 31.2991 36.7237 30.2109C37.1168 28.8207 37.6345 27.4786 38.2763 26.1846C38.2024 24.7135 38.0095 23.2573 37.6974 21.8162C37.4624 20.7323 37.015 19.7498 36.3553 18.8688C35.6126 18.0343 34.7134 17.4246 33.6579 17.0399C33.1913 16.8712 32.7176 16.7265 32.2368 16.6057C32.0955 18.098 31.9421 19.5892 31.7763 21.0793C31.0308 21.8249 30.285 22.5706 29.5395 23.3162C28.8492 22.5756 28.165 21.8299 27.4868 21.0793C26.9634 17.0392 26.4676 12.9953 26 8.94775C28.3508 8.94775 30.7018 8.94775 33.0526 8.94775C32.8226 11.2464 32.5858 13.5447 32.3421 15.8425Z" fill="#FDFDFE"/>
<path opacity="0.298" fill-rule="evenodd" clip-rule="evenodd" d="M8.81579 9.94727C8.47861 10.4458 8.14087 10.9458 7.80264 11.4473C7.67148 11.7092 7.56621 11.9811 7.48685 12.2631C6.03816 18.6732 4.59955 25.0855 3.17105 31.4999C3.1535 32.0702 3.1535 32.6402 3.17105 33.2104C3.25926 33.7736 3.46103 34.291 3.77632 34.7631C7.24335 39.1699 10.7609 43.5383 14.329 47.8683C15.0926 48.7902 15.8953 49.6804 16.7369 50.5394C17.0611 50.8452 17.4383 51.0647 17.8684 51.1973C18.41 51.7004 19.0504 51.9986 19.7895 52.092C26.5876 52.1052 33.3861 52.1097 40.1842 52.1052C40.0055 52.3323 39.8037 52.5383 39.579 52.7236C39.1755 52.9954 38.7719 53.2676 38.3684 53.5394C37.955 53.7752 37.5166 53.9286 37.0527 53.9999C30.2369 53.9999 23.4211 53.9999 16.6053 53.9999C15.8784 53.882 15.2381 53.5794 14.6842 53.092C14.3062 52.9602 13.9641 52.767 13.6579 52.5131C13.2133 52.086 12.7878 51.6431 12.3816 51.1841C10.8705 49.4099 9.37929 47.6204 7.9079 45.8157C5.40419 42.7244 2.9305 39.6104 0.486842 36.4736C0.237522 36.0457 0.0752411 35.5894 0 35.1052C0 34.5349 0 33.9649 0 33.3946C1.4291 27.0199 2.86332 20.6428 4.30263 14.2631C4.38861 13.8471 4.5465 13.4612 4.77632 13.1052C5.04098 12.744 5.29537 12.3756 5.53948 11.9999C5.82919 11.6048 6.18445 11.2846 6.60527 11.0394C7.33956 10.6678 8.0764 10.3038 8.81579 9.94727Z" fill="#00D2FF"/>
<path fill-rule="evenodd" clip-rule="evenodd" d="M27.421 10.21C28.8334 10.21 30.2455 10.21 31.6579 10.21C31.3076 13.6411 30.9437 17.071 30.5658 20.4994C30.2408 20.8288 29.9118 21.1533 29.5789 21.4731C29.2905 21.1541 28.9968 20.8383 28.6973 20.5258C28.2584 17.0888 27.8331 13.6502 27.421 10.21Z" fill="#092D75"/>
<path fill-rule="evenodd" clip-rule="evenodd" d="M32.342 15.8423C32.3375 15.8683 32.3462 15.8857 32.3682 15.8947C32.3535 15.955 32.3404 16.0162 32.3289 16.0782C32.3079 15.9944 32.3121 15.9158 32.342 15.8423Z" fill="#8294B9"/>
<path fill-rule="evenodd" clip-rule="evenodd" d="M36.2632 25.1577C36.2892 25.4073 36.2982 25.6617 36.2895 25.9209C36.4387 25.9209 36.5877 25.9209 36.7369 25.9209C36.584 25.9469 36.4261 25.9557 36.2632 25.9472C36.2632 25.684 36.2632 25.4209 36.2632 25.1577Z" fill="#8396BA"/>
<path fill-rule="evenodd" clip-rule="evenodd" d="M22.7632 25.9736C22.693 25.9736 22.6228 25.9736 22.5526 25.9736C22.5526 26.1139 22.5526 26.2543 22.5526 26.3947C22.5266 26.2506 22.5178 26.1014 22.5263 25.9473C22.6109 25.9391 22.6898 25.9479 22.7632 25.9736Z" fill="#8798BB"/>
<path fill-rule="evenodd" clip-rule="evenodd" d="M23.8158 26.4207C27.7061 26.3944 31.6008 26.3857 35.5 26.3944C35.5063 26.4283 35.4974 26.4546 35.4737 26.4733C31.5966 26.4207 27.7105 26.403 23.8158 26.4207Z" fill="#DFE4ED"/>
</svg>
