<svg width="62" height="60" viewBox="0 0 62 60" fill="none" xmlns="http://www.w3.org/2000/svg">
<path d="M28.8438 3.71875C30.2243 3.1481 31.7757 3.1481 33.1562 3.71875L33.4492 3.84961L50.6992 12.1572L50.9844 12.3047C52.2916 13.0283 53.2593 14.2413 53.6738 15.6768L53.7539 15.9873L58.0146 34.6533L58.0771 34.9688C58.3262 36.4416 57.9807 37.954 57.1172 39.1729L56.9248 39.4297L44.9873 54.3984C43.9161 55.7416 42.2912 56.5244 40.5732 56.5244H21.4268C19.7087 56.5244 18.0839 55.7416 17.0127 54.3984L5.0752 39.4297C4.00408 38.0865 3.60306 36.3283 3.98535 34.6533L8.24609 15.9873L8.32617 15.6768C8.7703 14.1388 9.84949 12.8561 11.3008 12.1572L28.5508 3.84961L28.8438 3.71875Z" fill="#0A2878" stroke="#5096FF" stroke-width="6"/>
<path d="M19.1077 26.1535C19.1077 24.4635 20.4777 23.0935 22.1677 23.0935H39.7629C41.4529 23.0935 42.8229 24.4635 42.8229 26.1535V39.9237C42.8229 41.6137 41.4529 42.9837 39.7629 42.9837H33.4516V42.9837C33.202 42.9837 32.9579 43.0566 32.7491 43.1933L27.5228 46.6175V46.6175C27.2775 46.781 26.949 46.6052 26.949 46.3104V46.235V43.3662V43.3662C26.949 43.155 26.7778 42.9837 26.5665 42.9837H22.1677C20.4777 42.9837 19.1077 41.6137 19.1077 39.9237V26.1535Z" stroke="white" stroke-width="1.53002"/>
<path d="M42.823 29.2135C42.823 29.2135 43.8064 29.2135 44.9268 29.2135C45.883 29.2135 46.1123 30.7283 46.0993 32.2736C46.0858 33.8826 46.0471 35.5249 44.9268 35.5249C43.8064 35.5249 42.823 35.5249 42.823 35.5249" stroke="white" stroke-width="1.53002"/>
<path d="M18.9421 29.2135C18.9421 29.2135 17.9587 29.2135 16.8384 29.2135C15.8821 29.2135 15.6528 30.7283 15.6658 32.2736C15.6793 33.8826 15.718 35.5249 16.8384 35.5249C17.9587 35.5249 18.9421 35.5249 18.9421 35.5249" stroke="white" stroke-width="1.53002"/>
<path d="M25.2278 29.7873C25.2278 27.1098 28.8616 27.1098 28.8616 29.7873" stroke="white" stroke-width="1.53002" stroke-linecap="round"/>
<path d="M33.2603 29.7873C33.2603 27.1098 36.894 27.1098 36.894 29.7873" stroke="white" stroke-width="1.53002" stroke-linecap="round"/>
<path d="M36.7031 35.7161C34.7906 37.8199 27.7143 38.2024 25.228 35.7161" stroke="white" stroke-width="1.53002" stroke-linecap="round"/>
<circle cx="25.6103" cy="18.1209" r="1.91252" stroke="white" stroke-width="1.53002"/>
<circle cx="36.703" cy="18.1209" r="1.91252" stroke="white" stroke-width="1.53002"/>
<path d="M25.6104 20.0334V23.0935" stroke="white" stroke-width="1.53002" stroke-linecap="round"/>
<path d="M36.7031 20.0334V23.0935" stroke="white" stroke-width="1.53002" stroke-linecap="round"/>
</svg>
